{
  "accessors": [
    {
      "bufferView": 2,
      "componentType": 5126,
      "count": 3499,
      "max": [
        12.732709884643555,
        10.615893363952637,
        32.537593841552734
      ],
      "min": [
        -12.732709884643555,
        -9.145999908447266,
        2.996121883392334
      ],
      "type": "VEC3"
    },
    {
      "bufferView": 2,
      "byteOffset": 41988,
      "componentType": 5126,
      "count": 3499,
      "max": [
        0.999557614326477,
        0.9997527599334717,
        0.9989466667175293
      ],
      "min": [
        -0.9995555281639099,
        -0.9998223781585693,
        -0.9951666593551636
      ],
      "type": "VEC3"
    },
    {
      "bufferView": 1,
      "componentType": 5126,
      "count": 3499,
      "max": [
        0.9984999895095825,
        0.9990000128746033
      ],
      "min": [
        0.0008999999845400453,
        0.0024999999441206455
      ],
      "type": "VEC2"
    },
    {
      "bufferView": 0,
      "componentType": 5125,
      "count": 12090,
      "type": "SCALAR"
    }
  ],
  "asset": {
    "extras": {
      "author": "The Imagine Studio (https://sketchfab.com/sanjay.pinw)",
      "license": "CC-BY-4.0 (http://creativecommons.org/licenses/by/4.0/)",
      "source": "https://sketchfab.com/3d-models/3d-beautiful-style-hair-ca0f91b3044e4f0ea315ae9ba64b49d9",
      "title": "3d Beautiful Style Hair"
    },
    "generator": "Sketchfab-12.64.0",
    "version": "2.0"
  },
  "bufferViews": [
    {
      "buffer": 0,
      "byteLength": 48360,
      "name": "floatBufferViews",
      "target": 34963
    },
    {
      "buffer": 0,
      "byteLength": 27992,
      "byteOffset": 48360,
      "byteStride": 8,
      "name": "floatBufferViews",
      "target": 34962
    },
    {
      "buffer": 0,
      "byteLength": 83976,
      "byteOffset": 76352,
      "byteStride": 12,
      "name": "floatBufferViews",
      "target": 34962
    }
  ],
  "buffers": [
    {
      "byteLength": 160328,
      "uri": "scene.bin"
    }
  ],
  "images": [
    {
      "uri": "textures/lambert6SG_baseColor.png"
    }
  ],
  "materials": [
    {
      "doubleSided": true,
      "name": "lambert6SG",
      "pbrMetallicRoughness": {
        "baseColorTexture": {
          "index": 0
        },
        "metallicFactor": 0.0,
        "roughnessFactor": 0.6
      }
    }
  ],
  "meshes": [
    {
      "name": "Object_0",
      "primitives": [
        {
          "attributes": {
            "NORMAL": 1,
            "POSITION": 0,
            "TEXCOORD_0": 2
          },
          "indices": 3,
          "material": 0,
          "mode": 4
        }
      ]
    }
  ],
  "nodes": [
    {
      "children": [
        1
      ],
      "matrix": [
        1.0,
        0.0,
        0.0,
        0.0,
        0.0,
        2.220446049250313e-16,
        -1.0,
        0.0,
        0.0,
        1.0,
        2.220446049250313e-16,
        0.0,
        0.0,
        0.0,
        0.0,
        1.0
      ],
      "name": "Sketchfab_model"
    },
    {
      "children": [
        2
      ],
      "name": "3d style hair.obj.cleaner.materialmerger.gles"
    },
    {
      "mesh": 0,
      "name": "Object_2"
    }
  ],
  "samplers": [
    {
      "magFilter": 9729,
      "minFilter": 9987,
      "wrapS": 10497,
      "wrapT": 10497
    }
  ],
  "scene": 0,
  "scenes": [
    {
      "name": "Sketchfab_Scene",
      "nodes": [
        0
      ]
    }
  ],
  "textures": [
    {
      "sampler": 0,
      "source": 0
    }
  ]
}
